<svg width="27" height="27" viewBox="0 0 27 27" fill="none" xmlns="http://www.w3.org/2000/svg">
<path d="M3.375 5.6248C2.75368 5.6248 2.25 6.12849 2.25 6.7498C2.25 7.37112 2.75368 7.8748 3.375 7.8748H4.5V20.2498C4.5 22.7233 6.52646 24.7498 9 24.7498H18C20.4735 24.7498 22.5 22.7233 22.5 20.2498V7.8748H23.625C24.2463 7.8748 24.75 7.37112 24.75 6.7498C24.75 6.12849 24.2463 5.6248 23.625 5.6248C16.875 5.6248 10.125 5.6248 3.375 5.6248ZM6.75 7.8748H20.25V20.2498C20.25 21.5158 19.266 22.4998 18 22.4998H9C7.73404 22.4998 6.75 21.5158 6.75 20.2498V7.8748Z" fill="black"/>
<path d="M11.25 2.25021C10.9516 2.25021 10.6655 2.36876 10.4545 2.57973C10.2435 2.79071 10.125 3.07685 10.125 3.37521C10.125 3.67358 10.2435 3.95971 10.4545 4.17069C10.6655 4.38167 10.9516 4.50021 11.25 4.50021H15.75C16.0484 4.50021 16.3345 4.38167 16.5455 4.17069C16.7565 3.95971 16.875 3.67358 16.875 3.37521C16.875 3.07685 16.7565 2.79071 16.5455 2.57973C16.3345 2.36876 16.0484 2.25021 15.75 2.25021H11.25Z" fill="black"/>
</svg>
