<svg width="41" height="41" viewBox="0 0 41 41" fill="none" xmlns="http://www.w3.org/2000/svg">
<path d="M28.6139 13.2396H12.3848C11.6843 13.2396 11.1035 12.6588 11.1035 11.9584V8.54169C11.1035 4.16835 13.1364 2.13544 17.5098 2.13544H23.4889C27.8623 2.13544 29.8952 4.16835 29.8952 8.54169V11.9584C29.8952 12.6588 29.3143 13.2396 28.6139 13.2396ZM13.666 10.6771H27.3327V8.54169C27.3327 5.63752 26.3931 4.69794 23.4889 4.69794H17.5098C14.6056 4.69794 13.666 5.63752 13.666 8.54169V10.6771Z" fill="white"/>
<path d="M22.2077 38.8648H18.791C14.6568 38.8648 12.3848 36.5927 12.3848 32.4585V25.6252C12.3848 24.9248 12.9656 24.3439 13.666 24.3439H27.3327C28.0331 24.3439 28.6139 24.9248 28.6139 25.6252V32.4585C28.6139 36.5927 26.3418 38.8648 22.2077 38.8648ZM14.9473 26.9064V32.4585C14.9473 35.1577 16.0918 36.3023 18.791 36.3023H22.2077C24.9068 36.3023 26.0514 35.1577 26.0514 32.4585V26.9064H14.9473Z" fill="white"/>
<path d="M30.75 32.0313H27.3333C26.6329 32.0313 26.0521 31.4505 26.0521 30.75V26.9063H14.9479V30.75C14.9479 31.4505 14.3671 32.0313 13.6667 32.0313H10.25C6.11583 32.0313 3.84375 29.7592 3.84375 25.625V17.0834C3.84375 12.9492 6.11583 10.6771 10.25 10.6771H30.75C34.8842 10.6771 37.1562 12.9492 37.1562 17.0834V25.625C37.1562 29.7592 34.8842 32.0313 30.75 32.0313ZM28.6146 29.4688H30.75C33.4492 29.4688 34.5938 28.3242 34.5938 25.625V17.0834C34.5938 14.3842 33.4492 13.2396 30.75 13.2396H10.25C7.55083 13.2396 6.40625 14.3842 6.40625 17.0834V25.625C6.40625 28.3242 7.55083 29.4688 10.25 29.4688H12.3854V25.625C12.3854 24.9246 12.9663 24.3438 13.6667 24.3438H27.3333C28.0338 24.3438 28.6146 24.9246 28.6146 25.625V29.4688Z" fill="white"/>
<path d="M29.0423 26.9064H11.959C11.2586 26.9064 10.6777 26.3256 10.6777 25.6252C10.6777 24.9248 11.2586 24.3439 11.959 24.3439H29.0423C29.7427 24.3439 30.3236 24.9248 30.3236 25.6252C30.3236 26.3256 29.7427 26.9064 29.0423 26.9064Z" fill="white"/>
<path d="M17.084 20.0729H11.959C11.2586 20.0729 10.6777 19.4921 10.6777 18.7917C10.6777 18.0913 11.2586 17.5104 11.959 17.5104H17.084C17.7844 17.5104 18.3652 18.0913 18.3652 18.7917C18.3652 19.4921 17.7844 20.0729 17.084 20.0729Z" fill="white"/>
</svg>
