<svg width="76" height="91" viewBox="0 0 76 91" fill="none" xmlns="http://www.w3.org/2000/svg">
<path d="M30.5156 23.2031V28.4241C30.5156 29.2784 31.2083 29.9711 32.0626 29.9711C32.9169 29.9711 33.6096 29.2784 33.6096 28.4241V24.7501H37.2836C38.1379 24.7501 38.8306 24.0574 38.8306 23.2031C38.8306 22.3488 38.1379 21.6562 37.2836 21.6562H32.0626C31.2083 21.6562 30.5156 22.3488 30.5156 23.2031Z" fill="white"/>
<path d="M37.2836 49.5017H33.6096V45.8277C33.6096 44.9734 32.9169 44.2807 32.0626 44.2807C31.2083 44.2807 30.5156 44.9734 30.5156 45.8277V51.0487C30.5156 51.4589 30.6786 51.8526 30.9687 52.1426C31.2587 52.4327 31.6524 52.5956 32.0626 52.5956H37.2836C38.1379 52.5956 38.8306 51.903 38.8306 51.0487C38.8306 50.1944 38.1379 49.5017 37.2836 49.5017Z" fill="white"/>
<path d="M59.9086 44.2809C59.0543 44.2809 58.3616 44.9736 58.3616 45.8279V49.5019H54.6876C53.8333 49.5019 53.1406 50.1946 53.1406 51.0489C53.1406 51.9031 53.8333 52.5958 54.6876 52.5958H59.9086C60.3188 52.5958 60.7125 52.4328 61.0025 52.1428C61.2926 51.8527 61.4556 51.4591 61.4556 51.0489V45.8279C61.4556 45.4176 61.2926 45.024 61.0025 44.7339C60.7125 44.4439 60.3188 44.2809 59.9086 44.2809Z" fill="white"/>
<path d="M54.6876 24.7501H58.3616V28.4241C58.3616 29.2784 59.0543 29.9711 59.9086 29.9711C60.7629 29.9711 61.4556 29.2784 61.4556 28.4241V23.2031C61.4556 22.7929 61.2926 22.3992 61.0025 22.1092C60.7125 21.8191 60.3188 21.6562 59.9086 21.6562H54.6876C53.8333 21.6562 53.1406 22.3488 53.1406 23.2031C53.1406 24.0574 53.8333 24.7501 54.6876 24.7501Z" fill="white"/>
<path d="M24.3279 4.63942V27.0714C22.9591 25.9734 20.5999 25.0141 18.8362 25.9036C16.7016 26.9713 15.9205 30.0728 15.0612 36.1759C13.9707 43.9108 8.69512 46.3472 6.80834 50.9185C5.5245 54.0124 3.86909 64.8876 3.5749 67.7805C3.41261 69.3813 1.37802 70.101 1.37042 70.101C0.782017 70.2978 0.36833 70.8275 0.319304 71.4456C0.270272 72.0644 0.59624 72.6528 1.14666 72.9394C1.19293 72.9394 6.1281 75.5616 9.02103 78.9878C15.1234 86.1737 15.8194 88.9507 15.8194 89.1439C15.8947 89.7489 16.318 90.253 16.9009 90.4319C17.4838 90.6108 18.1178 90.4305 18.519 89.9712C19.4009 88.9581 21.1254 87.5272 22.2006 87.5113C24.5674 87.5113 27.2745 88.5403 35.8989 85.6784C38.3429 84.8587 42.6357 82.6543 47.5012 78.8953H63.0021C64.2327 78.8953 65.4137 78.4063 66.2838 77.5361C67.1538 76.666 67.6429 75.4849 67.6429 74.2544V61.1051C69.368 58.1894 73.6913 54.0898 74.8438 49.6962C75.2914 48.2328 75.2858 46.6686 74.8293 45.2086C74.3722 43.7486 73.4847 42.4599 72.2838 41.5125C75.0919 36.2528 77.8992 30.1656 73.0573 27.2416C71.4606 26.1608 69.4301 25.946 67.6429 26.6698V4.64084C67.6429 3.41017 67.1539 2.22915 66.2838 1.35913C65.4136 0.489109 64.2326 0 63.0021 0H28.9686C27.7379 0 26.5569 0.48895 25.6869 1.35913C24.8169 2.22931 24.3278 3.41033 24.3278 4.64084L24.3279 4.63942ZM67.6432 30.3351C68.1024 29.7964 68.7475 29.4511 69.4506 29.3682C70.1529 29.2847 70.8615 29.4705 71.4333 29.8869C73.7538 31.3027 72.0984 35.2165 69.4223 40.2516C68.8373 40.1315 68.2406 40.0748 67.6434 40.0811L67.6432 30.3351ZM67.6432 43.1674C70.8918 43.1135 72.6709 45.7973 71.8511 48.9375C71.2558 51.258 69.3524 53.6792 67.6432 55.8989V43.1674ZM34.9322 82.7629C26.8803 85.4391 24.8768 84.3872 22.1621 84.4411C20.6089 84.5951 19.1435 85.2367 17.9777 86.2747C17.0419 84.4107 15.162 81.4479 11.3879 76.9928H11.3872C9.48189 74.8684 7.28076 73.0294 4.85121 71.5321C5.86987 70.6467 6.5142 69.4084 6.65366 68.0665C6.98654 64.8178 8.64122 54.5615 9.67017 52.0787C11.2171 48.3349 16.9098 45.2568 18.1246 36.609C18.3801 34.7761 19.1688 29.1987 20.2281 28.6655C20.2903 28.6655 20.6922 28.5032 22.0382 29.2456C23.5852 30.0812 24.3587 32.6724 24.3587 37.1663V74.2937V74.293C24.3587 75.5237 24.8476 76.7047 25.7178 77.5747C26.588 78.4447 27.769 78.9338 28.9995 78.9338H42.1951C39.9395 80.5015 37.5003 81.7875 34.9319 82.7625L34.9322 82.7629ZM39.7976 3.09457H52.1734V4.64154C52.1734 5.05177 52.0104 5.44542 51.7204 5.73548C51.4303 6.02553 51.0367 6.18852 50.6265 6.18852H41.3446C40.4903 6.18852 39.7976 5.49583 39.7976 4.64154V3.09457ZM41.3446 9.28247H50.6265C51.8571 9.28247 53.0381 8.79352 53.9082 7.92334C54.7782 7.05316 55.2673 5.87214 55.2673 4.64163V3.09466H63.0022C63.4124 3.09466 63.806 3.25764 64.0961 3.5477C64.3862 3.83776 64.5491 4.23141 64.5491 4.64163V74.2555C64.5491 74.6657 64.3862 75.0594 64.0961 75.3494C63.806 75.6395 63.4124 75.8025 63.0022 75.8025H28.9687C28.1144 75.8025 27.4217 75.1098 27.4217 74.2555V4.64163C27.4217 3.78735 28.1144 3.09466 28.9687 3.09466H36.7036V4.64163C36.7036 5.8723 37.1925 7.05332 38.0627 7.92334C38.9329 8.79336 40.1139 9.28247 41.3444 9.28247H41.3446Z" fill="white"/>
<path d="M36.7041 29.391V38.6729C36.7041 39.0831 36.8671 39.4767 37.1571 39.7668C37.4472 40.0568 37.8409 40.2198 38.2511 40.2198H47.5329C47.9431 40.2198 48.3368 40.0569 48.6269 39.7668C48.9169 39.4767 49.0799 39.0831 49.0799 38.6729V29.391C49.0799 28.9808 48.9169 28.5871 48.6269 28.2971C48.3368 28.007 47.9431 27.844 47.5329 27.844H38.2511C37.3968 27.844 36.7041 28.5367 36.7041 29.391ZM39.7981 30.938H45.986V37.1259H39.7981V30.938Z" fill="white"/>
<path d="M53.7203 34.0708C54.1305 34.0708 54.5242 33.9079 54.8142 33.6178C55.1043 33.3277 55.2673 32.9341 55.2673 32.5239V29.3912C55.2673 28.5369 54.5746 27.8442 53.7203 27.8442C52.866 27.8442 52.1733 28.5369 52.1733 29.3912V32.4851C52.163 32.9023 52.3211 33.3056 52.6126 33.6039C52.904 33.903 53.3032 34.0708 53.7203 34.0708Z" fill="white"/>
<path d="M41.345 43.3138H38.2511C37.3968 43.3138 36.7041 44.0065 36.7041 44.8608C36.7041 45.7151 37.3968 46.4078 38.2511 46.4078H41.345C42.1993 46.4078 42.892 45.7151 42.892 44.8608C42.892 44.0065 42.1993 43.3138 41.345 43.3138Z" fill="white"/>
<path d="M55.2678 38.6729C55.2678 39.5271 54.5751 40.2198 53.7208 40.2198C52.8665 40.2198 52.1738 39.5271 52.1738 38.6729C52.1738 37.8186 52.8665 37.1259 53.7208 37.1259C54.5751 37.1259 55.2678 37.8186 55.2678 38.6729Z" fill="white"/>
<path d="M55.2678 44.8608C55.2678 45.7151 54.5751 46.4078 53.7208 46.4078C52.8665 46.4078 52.1738 45.7151 52.1738 44.8608C52.1738 44.0065 52.8665 43.3138 53.7208 43.3138C54.5751 43.3138 55.2678 44.0065 55.2678 44.8608Z" fill="white"/>
<path d="M49.0793 44.8608C49.0793 45.7151 48.3866 46.4078 47.5323 46.4078C46.678 46.4078 45.9854 45.7151 45.9854 44.8608C45.9854 44.0065 46.678 43.3138 47.5323 43.3138C48.3866 43.3138 49.0793 44.0065 49.0793 44.8608Z" fill="white"/>
</svg>
