<svg width="18" height="18" viewBox="0 0 18 18" fill="none" xmlns="http://www.w3.org/2000/svg">
<g clip-path="url(#clip0_497_51)">
<path d="M9.10519 18C9.03448 18 8.96483 18 8.89412 18C8.87912 17.9904 8.86519 17.9764 8.84912 17.9732C8.38305 17.865 8.12269 17.565 8.00912 17.1086C7.92876 16.7861 7.8484 16.4604 7.72412 16.1539C6.4384 12.9718 4.18412 10.8654 0.838047 9.97821C0.605547 9.91607 0.392333 9.81214 0.25519 9.61393C0.148047 9.45857 0.0826897 9.27536 -0.00195312 9.105C-0.00195312 9.03429 -0.00195312 8.96464 -0.00195312 8.89393C0.0912612 8.55322 0.261618 8.26607 0.59269 8.11393C0.744833 8.04429 0.911976 8.00679 1.0759 7.96393C2.67448 7.54714 4.04805 6.73071 5.23519 5.59714C6.60448 4.29214 7.56555 2.74071 8.01019 0.891429C8.07769 0.610714 8.20305 0.371786 8.43876 0.211071C8.57483 0.117857 8.74197 0.0685714 8.89519 0C8.9659 0 9.03555 0 9.10626 0C9.12126 0.00964286 9.13519 0.0235714 9.15126 0.0267857C9.61733 0.133929 9.87662 0.435 9.99126 0.890357C10.0738 1.21821 10.1563 1.54929 10.2827 1.86107C11.5673 5.03786 13.8259 7.13357 17.1623 8.02071C17.4088 8.08607 17.6252 8.20286 17.7688 8.41071C17.8684 8.55643 17.9252 8.73214 18.0013 8.89393C18.0013 8.96464 18.0013 9.03429 18.0013 9.105C17.9916 9.12 17.9777 9.13393 17.9745 9.14893C17.8695 9.6075 17.5759 9.86786 17.128 9.98464C16.7959 10.0714 16.4627 10.1625 16.1402 10.2804C14.562 10.8546 13.2366 11.8039 12.1309 13.0586C11.1109 14.2157 10.3716 15.5293 10.0127 17.0411C9.95055 17.3025 9.8659 17.5575 9.64305 17.7193C9.48019 17.8371 9.28519 17.9079 9.10519 18Z" fill="white"/>
</g>
<defs>
<clipPath id="clip0_497_51">
<rect width="18" height="18" fill="white"/>
</clipPath>
</defs>
</svg>
