<svg width="36" height="36" viewBox="0 0 36 36" fill="none" xmlns="http://www.w3.org/2000/svg">
<g clip-path="url(#clip0_503_423)">
<path d="M20.6499 4.85945L4.84012 20.5556C4.37146 21.0209 4.36874 21.7747 4.83403 22.2434L6.94741 24.3721C7.41267 24.8407 8.16657 24.8435 8.63523 24.3782C9.4483 23.5709 10.7648 23.5757 11.572 24.3888C12.3793 25.2018 12.3745 26.5183 11.5614 27.3256C11.0928 27.7908 11.09 28.5447 11.5553 29.0134L13.6687 31.142C14.134 31.6107 14.8879 31.6134 15.3565 31.1481L31.1663 15.452C31.6349 14.9867 31.6376 14.2328 31.1724 13.7642L29.059 11.6355C28.5937 11.1668 27.8398 11.1641 27.3712 11.6294C26.5581 12.4366 25.2416 12.4319 24.4344 11.6188C23.6272 10.8057 23.6319 9.48926 24.445 8.68203C24.9136 8.21674 24.9163 7.46284 24.4511 6.99422L22.3377 4.86554C21.8724 4.39688 21.1185 4.39416 20.6499 4.85945ZM23.6353 16.3363C24.095 16.7993 24.0979 17.5588 23.6293 18.0241C23.1606 18.4894 22.4011 18.481 21.9414 18.018L18.0174 14.0656C17.5577 13.6025 17.5548 12.843 18.0235 12.3777C18.4922 11.9124 19.2516 11.9208 19.7113 12.3838L23.6353 16.3363Z" fill="black"/>
<rect x="16.9844" y="11.6006" width="6.73301" height="8.07961" transform="rotate(-5.39748 16.9844 11.6006)" fill="black"/>
<circle cx="18.5225" cy="12.8728" r="1.00995" transform="rotate(-41.6445 18.5225 12.8728)" fill="white"/>
<circle cx="20.7588" cy="15.3883" r="1.00995" transform="rotate(-41.6445 20.7588 15.3883)" fill="white"/>
<circle cx="22.9962" cy="17.9039" r="1.00995" transform="rotate(-41.6445 22.9962 17.9039)" fill="white"/>
</g>
<defs>
<clipPath id="clip0_503_423">
<rect width="25.4608" height="25.4608" fill="white" transform="translate(0 17.9384) rotate(-44.7934)"/>
</clipPath>
</defs>
</svg>
