<svg width="50" height="50" viewBox="0 0 50 50" fill="none" xmlns="http://www.w3.org/2000/svg">
<g clip-path="url(#clip0_554_190)">
<path d="M28.1364 6.62046L6.59539 28.0066C5.95684 28.6406 5.95313 29.6677 6.58709 30.3063L9.4666 33.2066C10.1005 33.8452 11.1277 33.8489 11.7663 33.2149C12.8741 32.1151 14.6678 32.1215 15.7677 33.2294C16.8675 34.3372 16.8611 36.1309 15.7532 37.2308C15.1147 37.8647 15.111 38.8919 15.7449 39.5304L18.6244 42.4308C19.2584 43.0693 20.2856 43.073 20.9241 42.4391L42.4651 21.0529C43.1037 20.419 43.1073 19.3918 42.4734 18.7532L39.5939 15.8529C38.9599 15.2143 37.9328 15.2106 37.2942 15.8446C36.1864 16.9445 34.3927 16.938 33.2928 15.8302C32.1929 14.7223 32.1994 12.9286 33.3072 11.8288C33.9458 11.1948 33.9495 10.1676 33.3155 9.5291L30.436 6.62875C29.8021 5.9902 28.7749 5.9865 28.1364 6.62046ZM32.2041 22.2577C32.8304 22.8886 32.8344 23.9235 32.1958 24.5574C31.5573 25.1914 30.5225 25.18 29.8961 24.5491L24.5496 19.1639C23.9233 18.533 23.9193 17.4982 24.5579 16.8642C25.1964 16.2302 26.2312 16.2417 26.8576 16.8725L32.2041 22.2577Z" fill="white"/>
<rect x="23.1445" y="15.8047" width="9.1738" height="11.0086" transform="rotate(-5.39748 23.1445 15.8047)" fill="white"/>
<circle cx="25.2396" cy="17.5387" r="1.37607" transform="rotate(-41.6445 25.2396 17.5387)" fill="#111111"/>
<circle cx="28.2865" cy="20.9664" r="1.37607" transform="rotate(-41.6445 28.2865 20.9664)" fill="#111111"/>
<circle cx="31.3333" cy="24.3937" r="1.37607" transform="rotate(-41.6445 31.3333 24.3937)" fill="#111111"/>
</g>
<defs>
<clipPath id="clip0_554_190">
<rect width="34.6906" height="34.6906" fill="white" transform="translate(0 24.4413) rotate(-44.7934)"/>
</clipPath>
</defs>
</svg>
